:FULLY-SPECIFIED
:DEGREES
2183
root 8.46787 16.4304 -2.42442 6123.74 -93.311 -6109.38
lowerback 0.399473 2.62065 -2.82586
upperback 2.03555 3.50171 -2.44543
thorax 1.84914 1.70351 -0.887557
lowerneck -19.4247 2.22433 -0.39751
upperneck 33.4156 1.85831 2.18163
head 14.8113 0.787691 1.23996
rclavicle 1.66979e-014 -4.92986e-014
rhumerus -23.441 3.31479 -86.0925
rradius 49.9667
rwrist 13.8888
rhand -29.6137 -13.0605
rfingers 7.12502
rthumb -2.94443 -43.0199
lclavicle 1.66979e-014 -4.92986e-014
lhumerus -36.0412 2.53154 81.2041
lradius 20.411
lwrist -2.81759
lhand -21.0356 7.42608
lfingers 7.12502
lthumb 5.33998 37.3388
rfemur -9.70024 -1.52558 20.3906
rtibia 47.3961
rfoot 4.25023 3.72288
rtoes -20.4632
lfemur -43.585 4.22358 -22.933
ltibia 33.288
lfoot -4.22066 2.78656
ltoes -9.69401
2184
root 8.45755 16.4463 -2.39883 6125.09 -93.3973 -6110.84
lowerback 0.246758 2.48885 -2.8686
upperback 2.07447 3.33473 -2.46858
thorax 1.97461 1.61776 -0.881053
lowerneck -19.3582 2.41263 -0.351293
upperneck 33.6759 2.19336 1.91602
head 14.9148 0.886986 1.18407
rclavicle 2.14687e-014 -1.03368e-014
rhumerus -23.7371 3.33813 -86.5016
rradius 49.5355
rwrist 13.493
rhand -29.7198 -12.8651
rfingers 7.12502
rthumb -3.04688 -42.8231
lclavicle 2.14687e-014 -1.03368e-014
lhumerus -35.7085 2.16221 81.3555
lradius 20.2787
lwrist -3.35474
lhand -20.5026 7.39666
lfingers 7.12502
lthumb 5.85454 37.2958
rfemur -11.3075 -2.18335 19.9623
rtibia 50.7546
rfoot 5.36874 4.12644
rtoes -17.954
lfemur -42.8008 4.27276 -23.1013
ltibia 33.8513
lfoot -4.98058 2.43242
ltoes -8.81704
2185
root 8.44897 16.4701 -2.37118 6130.1 -93.5819 -6115.93
lowerback 0.0151581 2.37668 -3.08327
upperback 2.11054 3.19911 -2.56369
thorax 2.1366 1.54388 -0.849942
lowerneck -19.2854 2.59819 -0.368489
upperneck 33.9552 2.52287 1.71557
head 15.0256 0.983392 1.165
rclavicle 4.05521e-014 1.59028e-015
rhumerus -23.9736 3.51023 -86.9013
rradius 49.0965
rwrist 13.1152
rhand -29.5882 -12.8195
rfingers 7.12502
rthumb -2.91981 -42.7792
lclavicle 4.05521e-014 1.59028e-015
lhumerus -35.3737 1.75833 81.5313
lradius 20.3621
lwrist -3.62062
lhand -20.2745 7.33705
lfingers 7.12502
lthumb 6.07479 37.23
rfemur -13.0913 -2.62385 19.3241
rtibia 54.0089
rfoot 5.94935 4.43274
rtoes -14.4602
lfemur -41.8387 4.08873 -23.4305
ltibia 34.0598
lfoot -5.73577 2.57268
ltoes -8.26309
2186
root 8.44149 16.4977 -2.34477 6137.51 -93.8153 -6123.32
lowerback -0.299415 2.25527 -3.44434
upperback 2.13809 3.05838 -2.7434
thorax 2.33464 1.46371 -0.822369
lowerneck -19.3255 2.73817 -0.397688
upperneck 34.2111 2.75763 1.61819
head 15.1523 1.05409 1.17567
rclavicle 2.10712e-014 -6.36111e-015
rhumerus -24.0765 3.62616 -87.3401
rradius 48.4915
rwrist 12.6316
rhand -29.3186 -12.5815
rfingers 7.12502
rthumb -2.65937 -42.5446
lclavicle 2.10712e-014 -6.36111e-015
lhumerus -35.0215 0.988967 81.8067
lradius 20.6615
lwrist -3.51838
lhand -19.8064 7.26634
lfingers 7.12502
lthumb 6.52673 37.1458
rfemur -15.0011 -3.02189 18.4938
rtibia 57.0945
rfoot 5.71538 3.78622
rtoes -13.7084
lfemur -40.7977 3.98182 -23.9961
ltibia 33.9633
lfoot -6.44733 2.44592
ltoes -6.60602
2187
root 8.44278 16.5268 -2.31972 6144.99 -94.2179 -6130.81
lowerback -0.45141 2.17115 -3.93995
upperback 2.10072 2.95876 -2.93554
thorax 2.36897 1.4031 -0.741434
lowerneck -19.3408 2.85278 -0.455991
upperneck 34.4734 2.96213 1.52833
head 15.2773 1.10807 1.18867
rclavicle -4.13472e-014 2.46493e-014
rhumerus -24.2863 3.7585 -87.7228
rradius 47.8485
rwrist 12.6147
rhand -28.8782 -12.3473
rfingers 7.12502
rthumb -2.23405 -42.3153
lclavicle -4.13472e-014 2.46493e-014
lhumerus -34.68 0.17855 82.1254
lradius 21.0303
lwrist -3.39168
lhand -19.4708 7.37682
lfingers 7.12502
lthumb 6.85071 37.246
rfemur -16.9659 -3.4083 17.5526
rtibia 60.0046
rfoot 5.34538 3.07805
rtoes -14.3892
lfemur -39.6696 3.99782 -24.7151
ltibia 33.6893
lfoot -7.12807 2.3305
ltoes -6.02238
2188
root 8.44334 16.5592 -2.29799 6152.03 -94.7066 -6137.86
lowerback -0.571405 2.08155 -4.56001
upperback 2.01769 2.84999 -3.12759
thorax 2.3337 1.33658 -0.594449
lowerneck -19.308 2.94315 -0.570855
upperneck 34.7171 3.11249 1.54001
head 15.3802 1.14592 1.243
rclavicle -1.51076e-014 4.29375e-014
rhumerus -24.559 3.75961 -88.0025
rradius 47.2572
rwrist 13.1218
rhand -27.4332 -12.6117
rfingers 7.12502
rthumb -0.838505 -42.5898
lclavicle -1.51076e-014 4.29375e-014
lhumerus -34.3979 -0.650494 82.4151
lradius 21.4705
lwrist -3.20763
lhand -19.2432 7.37183
lfingers 7.12502
lthumb 7.07042 37.2337
rfemur -18.9837 -3.8206 16.5475
rtibia 62.7027
rfoot 4.98031 2.62062
rtoes -14.0735
lfemur -38.5079 3.82919 -25.4438
ltibia 33.3539
lfoot -7.89783 2.40889
ltoes -4.60065
2189
root 8.4492 16.5881 -2.27834 6155.22 -95.033 -6141.08
lowerback -0.613174 1.95817 -4.89252
upperback 1.93122 2.68778 -3.21194
thorax 2.26115 1.25073 -0.500492
lowerneck -19.2507 3.05347 -0.620201
upperneck 34.9161 3.29123 1.49491
head 15.459 1.19697 1.26614
rclavicle 1.03368e-014 -3.18055e-015
rhumerus -24.8816 3.81035 -88.2925
rradius 46.5522
rwrist 13.8097
rhand -26.4711 -12.2968
rfingers 7.12502
rthumb 0.0907071 -42.2765
lclavicle 1.03368e-014 -3.18055e-015
lhumerus -34.1587 -1.46191 82.7373
lradius 22.0325
lwrist -2.74767
lhand -19.3709 7.27872
lfingers 7.12502
lthumb 6.94708 37.1447
rfemur -20.9785 -4.13845 15.9688
rtibia 65.1304
rfoot 4.57725 2.32411
rtoes -14.694
lfemur -37.3823 3.91185 -25.9495
ltibia 33.0284
lfoot -8.51637 2.30725
ltoes -3.70886
